<?xml version="1.0" encoding="UTF-8"?>
<svg version="1.1" xmlns="http://www.w3.org/2000/svg" width="100" height="100">
<path d="M0 0 C4.43608023 3.29357289 7.45776425 7.408449 9.19921875 12.6328125 C9.81216493 20.54082301 10.34418708 28.16399268 5.19921875 34.6328125 C0.74789543 39.33729164 -3.49142641 42.29278321 -10.0703125 42.96875 C-18.34450122 43.0599759 -24.3850614 42.81091514 -30.54296875 36.984375 C-36.47476729 30.48494024 -37.25870358 24.77492186 -37.11328125 16.0859375 C-36.53993303 9.75043966 -34.42410468 6.25613593 -29.98828125 1.8203125 C-20.46574845 -4.71475903 -10.32710959 -5.82043214 0 0 Z M-26.55078125 6.8828125 C-30.42147209 11.61365687 -32.11429111 15.58744509 -31.73828125 21.6953125 C-30.89587477 27.60111964 -28.64719439 31.00621045 -24.17578125 34.9453125 C-18.39075537 37.83782544 -13.19347107 38.33885212 -6.98828125 36.5078125 C-1.07456094 33.02915349 2.24173166 29.26651876 4.19921875 22.6328125 C4.44996837 16.31392206 3.47173668 11.48269772 -0.80078125 6.6328125 C-8.80986815 -0.42281168 -18.51798613 0.31052558 -26.55078125 6.8828125 Z " fill="#D0CF1A" transform="translate(63.80078125,30.3671875)"/>
<path d="M0 0 C7.92 0 15.84 0 24 0 C23 7 23 7 20.5625 9.9375 C17.04285467 12.490303 13.6714291 12.71827734 9.41015625 12.48046875 C5.26523905 11.65417245 3.71339926 10.26999398 1 7 C0.67 4.69 0.34 2.38 0 0 Z M7 4 C7.99 5.485 7.99 5.485 9 7 C12 7.5 12 7.5 15 7 C15.66 6.01 16.32 5.02 17 4 C13.7 4 10.4 4 7 4 Z " fill="#CFCD1B" transform="translate(38,52)"/>
<path d="M0 0 C3.19384754 -0.21776233 5.40422845 -0.28983481 8.3125 1.125 C10.56088745 3.62320828 10.70751005 5.70948807 11 9 C12.32 9.33 13.64 9.66 15 10 C14.67 11.65 14.34 13.3 14 15 C10.75 15 10.75 15 7 14 C5.62427026 12.00519188 4.77865056 10.07568073 3.921875 7.8125 C3.0825837 5.63739992 3.0825837 5.63739992 0 5 C0 3.35 0 1.7 0 0 Z " fill="#CFCE19" transform="translate(69,71)"/>
<path d="M0 0 C3.19384754 -0.21776233 5.40422845 -0.28983481 8.3125 1.125 C10.56088745 3.62320828 10.70751005 5.70948807 11 9 C12.32 9.33 13.64 9.66 15 10 C14.67 11.65 14.34 13.3 14 15 C10.75 15 10.75 15 7 14 C5.62427026 12.00519188 4.77865056 10.07568073 3.921875 7.8125 C3.0825837 5.63739992 3.0825837 5.63739992 0 5 C0 3.35 0 1.7 0 0 Z " fill="#CFCE19" transform="translate(15,15)"/>
<path d="M0 0 C1.66621616 0.03874921 3.33394172 0.0450286 5 0 C4.67 1.65 4.34 3.3 4 5 C1.25 6.125 1.25 6.125 -2 7 C-3.35085807 6.36959957 -4.68252676 5.69748583 -6 5 C-8.69125821 4.81296275 -11.29750569 4.90991686 -14 5 C-14 3.35 -14 1.7 -14 0 C-9.4440593 -3.09803967 -4.9275821 -1.64252737 0 0 Z " fill="#CECD1A" transform="translate(93,46)"/>
<path d="M0 0 C0.70125 0.185625 1.4025 0.37125 2.125 0.5625 C4.44929721 1.10483602 6.62216121 1.06605108 9 1 C8.8125 3.375 8.8125 3.375 8 6 C5.24674686 7.68254358 3.64333248 8.07845518 0.4375 7.6875 C-0.366875 7.460625 -1.17125 7.23375 -2 7 C-4.96307597 6.19188837 -6.79332849 6 -10 6 C-10.1875 3.625 -10.1875 3.625 -10 1 C-6.10748944 -1.59500704 -4.4869469 -0.86590203 0 0 Z " fill="#D0CF1A" transform="translate(13,45)"/>
<path d="M0 0 C1.65 0 3.3 0 5 0 C7.04494172 4.08988344 7.05725219 6.57876359 6 11 C5.67 11.99 5.34 12.98 5 14 C4.65179959 15.66362417 4.31595508 17.32995171 4 19 C2.68 19 1.36 19 0 19 C-1.71634336 16.37500427 -2.01862736 15.17882263 -1.6875 12 C-1.29923218 10.30574044 -0.89484523 8.61443253 -0.4375 6.9375 C0.09277982 4.58911795 0.06664932 2.39937543 0 0 Z " fill="#CECD1A" transform="translate(48,79)"/>
<path d="M0 0 C1.65 0 3.3 0 5 0 C7.04494172 4.08988344 7.05725219 6.57876359 6 11 C5.67 11.99 5.34 12.98 5 14 C4.65179959 15.66362417 4.31595508 17.32995171 4 19 C2.68 19 1.36 19 0 19 C-1.71634336 16.37500427 -2.01862736 15.17882263 -1.6875 12 C-1.29923218 10.30574044 -0.89484523 8.61443253 -0.4375 6.9375 C0.09277982 4.58911795 0.06664932 2.39937543 0 0 Z " fill="#CECD1A" transform="translate(48,3)"/>
<path d="M0 0 C1.65 0.33 3.3 0.66 5 1 C4.39473684 6.44736842 4.39473684 6.44736842 2.75 8.75 C1 10 1 10 -1.5625 11 C-4.31238322 11.86272409 -4.31238322 11.86272409 -6 15 C-7.32 14.67 -8.64 14.34 -10 14 C-10.25 11.1875 -10.25 11.1875 -10 8 C-8.0214951 5.95083421 -6.66108696 5.13610614 -3.875 4.5625 C-1.784099 4.16351592 -1.784099 4.16351592 -0.75 1.9375 C-0.37875 0.9784375 -0.37875 0.9784375 0 0 Z " fill="#CFCE1A" transform="translate(23,71)"/>
<path d="M0 0 C1.65 0.33 3.3 0.66 5 1 C5.36 5.44 5.36 5.44 3.875 7.75 C2 9 2 9 -1.0625 9.375 C-2.031875 9.58125 -3.00125 9.7875 -4 10 C-5.45291273 12.46255685 -5.45291273 12.46255685 -6 15 C-7.32 14.67 -8.64 14.34 -10 14 C-9.51309271 7.54847841 -9.51309271 7.54847841 -7.1875 5.0625 C-5 4 -5 4 -1 4 C-0.67 2.68 -0.34 1.36 0 0 Z " fill="#CFCE1A" transform="translate(81,15)"/>
<path d="M0 0 C2.9375 0.75 2.9375 0.75 4.9375 2.75 C4.9375 4.07 4.9375 5.39 4.9375 6.75 C0.6210078 7.51173392 -2.80683453 7.91063604 -7.0625 6.75 C-6.75 4.375 -6.75 4.375 -6.0625 1.75 C-3.0625 -0.25 -3.0625 -0.25 0 0 Z " fill="#D4D318" transform="translate(44.0625,39.25)"/>
<path d="M0 0 C2.875 0.9375 2.875 0.9375 4.875 3.9375 C4.545 5.2575 4.215 6.5775 3.875 7.9375 C0.575 7.9375 -2.725 7.9375 -6.125 7.9375 C-6.455 6.6175 -6.785 5.2975 -7.125 3.9375 C-4.93399059 0.69480608 -3.96390638 -0.07927813 0 0 Z " fill="#D2D118" transform="translate(58.125,39.0625)"/>
</svg>
